<?xml version="1.0" standalone="no"?>
<!DOCTYPE svg PUBLIC "-//W3C//DTD SVG 20010904//EN"
 "http://www.w3.org/TR/2001/REC-SVG-20010904/DTD/svg10.dtd">
<svg version="1.0" xmlns="http://www.w3.org/2000/svg"
 width="545.000000pt" height="393.000000pt" viewBox="0 0 545.000000 393.000000"
 preserveAspectRatio="xMidYMid meet">

<g transform="translate(0.000000,393.000000) scale(0.100000,-0.100000)"
fill="#000000" stroke="none">
<path d="M1842 2961 c-486 -257 -884 -472 -883 -477 0 -5 399 -218 886 -473
l885 -463 520 261 519 262 3 -413 3 -413 28 -56 c50 -103 158 -178 282 -197
l55 -9 0 93 0 93 -40 11 c-22 6 -56 25 -76 42 -69 61 -67 47 -72 523 l-4 430
281 155 c155 85 281 157 281 160 0 5 -1474 780 -1477 776 -1 -1 5 -24 13 -51
9 -28 19 -92 24 -143 9 -102 30 -143 90 -179 32 -19 41 -53 14 -53 -25 0 -79
37 -106 73 -28 35 -44 97 -53 200 -3 37 -14 89 -24 115 -10 26 -16 52 -14 58
3 8 -193 121 -246 141 -3 1 -404 -208 -889 -466z m1012 186 c9 -29 20 -93 25
-144 9 -103 22 -130 81 -171 40 -27 53 -62 25 -62 -49 0 -128 76 -144 137 -5
21 -12 73 -16 116 -3 44 -15 104 -27 134 -17 45 -18 57 -7 64 21 12 45 -16 63
-74z m-148 -101 c22 -35 44 -122 44 -181 0 -87 17 -125 78 -183 46 -43 54 -55
42 -62 -22 -14 -24 -13 -72 23 -66 50 -85 95 -97 220 -6 59 -17 120 -26 137
-31 60 -5 99 31 46z m434 -311 c38 -19 60 -63 60 -115 0 -36 2 -40 18 -31 9 5
53 17 97 26 230 48 509 -54 636 -234 39 -55 44 -59 74 -54 33 5 49 -5 37 -24
-12 -18 -1256 -664 -1269 -659 -18 7 -16 33 4 44 15 9 15 15 -6 78 -28 83 -39
235 -22 315 28 132 93 250 193 348 40 39 65 71 57 71 -22 0 -69 52 -78 86 -12
46 4 96 43 132 29 26 44 32 81 32 25 0 59 -7 75 -15z"/>
<path d="M3012 2677 c-32 -34 -30 -89 4 -116 79 -62 180 44 109 114 -32 33
-83 34 -113 2z"/>
<path d="M3295 2564 c-216 -48 -414 -238 -469 -450 -23 -90 -21 -223 5 -311
12 -40 27 -73 33 -73 6 0 173 85 371 188 198 104 440 230 538 281 169 88 176
93 166 114 -47 89 -192 201 -307 238 -90 28 -243 34 -337 13z m-215 -239 c0
-9 -22 -45 -49 -80 -66 -86 -92 -158 -92 -254 0 -42 4 -89 9 -106 11 -38 5
-55 -18 -55 -41 0 -53 185 -20 291 20 64 50 116 105 182 31 37 65 48 65 22z"/>
<path d="M1883 1714 c-3 -9 -3 -107 1 -218 6 -181 9 -206 30 -252 31 -67 88
-130 145 -159 71 -35 658 -285 671 -285 6 0 155 72 331 161 343 172 445 239
494 323 24 42 25 48 25 244 0 111 -3 202 -7 202 -5 0 -192 -90 -417 -200 -224
-110 -416 -200 -426 -200 -9 0 -170 75 -356 166 -476 233 -484 237 -491 218z"/>
<path d="M4193 840 c-23 -9 -37 -45 -31 -77 4 -25 69 -30 92 -8 23 23 21 72
-3 85 -23 12 -28 12 -58 0z"/>
<path d="M1831 649 c-26 -146 -31 -196 -23 -214 13 -29 63 -41 103 -25 24 10
29 18 29 46 0 24 -4 32 -14 28 -8 -3 -17 -1 -20 4 -3 5 8 83 24 173 16 90 30
167 30 172 0 4 -22 7 -48 7 l-48 0 -33 -191z"/>
<path d="M2045 828 c-2 -7 -18 -93 -35 -190 -34 -201 -32 -223 22 -233 18 -4
46 -2 61 4 22 9 27 17 27 45 0 26 -4 34 -14 30 -8 -3 -16 -1 -19 3 -3 5 5 67
18 138 13 72 26 149 30 173 l7 42 -46 0 c-28 0 -48 -5 -51 -12z"/>
<path d="M1282 820 c-87 -13 -126 -62 -151 -193 -32 -169 -16 -209 89 -223 89
-13 173 29 199 99 17 44 14 47 -39 47 -44 0 -52 -3 -62 -25 -13 -29 -53 -43
-77 -28 -19 13 -18 105 2 174 15 53 53 77 88 58 18 -9 21 -17 16 -55 l-5 -44
48 0 c45 0 49 2 59 31 15 43 14 75 -4 108 -21 42 -84 62 -163 51z"/>
<path d="M360 813 c0 -10 -58 -349 -65 -381 -5 -22 -3 -23 47 -20 l53 3 16 97
c23 132 23 132 44 55 18 -67 18 -67 54 -67 33 0 39 5 75 60 21 34 41 59 43 56
2 -2 -3 -41 -11 -86 -24 -123 -25 -120 34 -120 28 0 50 3 50 8 0 4 16 94 35
201 19 107 35 196 35 198 0 1 -24 3 -54 3 l-53 0 -63 -95 c-35 -53 -65 -93
-69 -90 -3 3 -17 45 -32 93 l-26 87 -57 3 c-31 2 -56 -1 -56 -5z"/>
<path d="M3175 808 c-6 -19 -65 -361 -65 -381 0 -14 10 -17 53 -17 l54 0 9 73
c8 61 12 72 28 72 15 0 25 -16 44 -72 l24 -73 54 0 c30 0 54 3 54 8 0 4 -10
40 -21 80 -20 66 -21 74 -6 90 49 54 65 169 28 205 -19 20 -35 22 -136 25 -89
3 -116 1 -120 -10z m160 -123 c0 -38 -2 -40 -37 -49 -21 -5 -40 -7 -43 -4 -3
2 -2 26 1 52 7 47 7 47 43 44 35 -3 36 -4 36 -43z"/>
<path d="M811 635 c-29 -150 -30 -194 -4 -215 19 -14 19 -15 -4 -35 -33 -29
-39 -74 -14 -106 59 -75 211 -20 240 87 5 21 21 101 34 177 22 123 23 137 8
138 -23 2 -74 -1 -78 -4 -1 -2 -9 -40 -17 -85 -8 -44 -17 -86 -21 -92 -3 -5
-20 -10 -37 -10 l-31 0 8 63 c5 34 9 77 9 96 1 34 0 35 -41 35 l-43 1 -9 -50z
m129 -238 c0 -31 -27 -67 -51 -67 -28 0 -24 35 8 65 34 31 43 31 43 2z"/>
<path d="M1553 670 c-44 -26 -60 -54 -72 -126 -19 -104 7 -139 103 -139 71 0
119 17 140 51 9 13 21 55 28 93 14 79 4 110 -39 130 -39 18 -124 13 -160 -9z
m105 -88 c9 -61 -39 -120 -74 -91 -16 13 -12 65 8 102 14 27 62 19 66 -11z"/>
<path d="M2243 675 c-17 -7 -39 -25 -49 -40 -21 -33 -42 -141 -34 -175 12 -51
112 -76 184 -46 34 14 76 59 76 82 0 20 -84 19 -100 -1 -21 -25 -54 -15 -58
17 l-3 27 88 3 88 3 3 51 c3 46 0 54 -24 73 -32 25 -120 28 -171 6z m81 -61
c9 -3 16 -15 16 -25 0 -15 -7 -19 -35 -19 -38 0 -44 10 -19 34 18 18 17 18 38
10z"/>
<path d="M2552 678 c-33 -16 -59 -65 -72 -135 -12 -70 -6 -109 20 -123 17 -9
16 -12 -11 -39 -51 -52 -29 -129 39 -132 88 -5 135 17 169 78 17 31 73 291 73
340 0 14 -60 25 -74 14 -7 -6 -17 -6 -26 -1 -20 13 -90 11 -118 -2z m100 -123
c-3 -57 -22 -78 -55 -65 -45 17 -10 125 37 118 19 -3 21 -9 18 -53z m-22 -145
c0 -6 -7 -27 -15 -46 -11 -28 -19 -35 -37 -32 -33 5 -33 25 0 58 31 30 52 38
52 20z"/>
<path d="M2871 672 c-19 -10 -42 -33 -52 -51 -19 -36 -34 -139 -25 -169 8 -24
63 -52 103 -52 75 0 153 47 153 91 0 16 -8 19 -44 19 -27 0 -48 -6 -56 -15
-21 -25 -54 -15 -58 18 l-3 27 90 0 91 0 1 28 c4 60 -1 78 -26 100 -34 29
-124 31 -174 4z m94 -65 c25 -19 10 -37 -31 -37 -38 0 -41 5 -17 32 19 22 24
22 48 5z"/>
<path d="M3560 672 c-46 -23 -69 -67 -77 -144 -7 -81 4 -104 59 -119 92 -24
198 24 198 91 0 16 -82 11 -101 -6 -25 -22 -59 -10 -59 22 0 24 1 24 90 24
l90 0 0 54 c0 47 -4 57 -26 75 -34 27 -124 29 -174 3z m94 -68 c22 -22 11 -34
-30 -34 -39 0 -44 12 -12 34 27 19 23 19 42 0z"/>
<path d="M3884 680 c-41 -16 -72 -66 -85 -140 -11 -66 -11 -73 8 -97 24 -33
64 -45 126 -39 57 6 101 35 115 76 l11 30 -45 0 c-25 0 -55 -7 -68 -15 -18
-12 -25 -13 -40 -2 -15 11 -16 19 -7 56 10 48 25 63 56 59 15 -2 20 -10 20
-30 -1 -27 2 -28 46 -28 49 0 59 9 59 55 0 37 -10 55 -41 70 -30 16 -121 19
-155 5z"/>
<path d="M4145 676 c-15 -58 -36 -212 -31 -231 9 -35 50 -50 99 -35 33 10 37
14 37 45 0 25 -4 33 -14 29 -24 -9 -26 11 -10 100 9 48 14 90 10 93 -11 11
-88 10 -91 -1z"/>
<path d="M4330 680 c-4 -3 -10 -27 -14 -55 -4 -27 -18 -111 -32 -185 -13 -74
-26 -147 -29 -162 -4 -27 -3 -28 44 -28 l49 0 12 73 c16 101 14 97 52 86 24
-8 44 -7 73 3 50 16 82 74 91 165 6 57 5 63 -19 87 -20 20 -36 26 -69 26 -24
0 -50 -4 -58 -9 -8 -6 -18 -7 -24 -4 -12 8 -65 10 -76 3z m143 -120 c-3 -53
-32 -86 -63 -70 -15 8 -18 18 -13 48 9 58 21 74 51 70 25 -3 27 -6 25 -48z"/>
<path d="M4693 670 c-43 -26 -59 -54 -74 -128 -15 -78 -4 -107 48 -129 45 -18
119 -12 158 13 22 15 55 61 55 79 0 3 -22 5 -49 5 -34 0 -51 -4 -55 -15 -3 -8
-14 -15 -24 -15 -25 0 -46 25 -38 45 4 12 24 15 90 15 l84 0 7 30 c11 48 -3
89 -35 105 -42 22 -128 19 -167 -5z m107 -85 c0 -11 -12 -15 -40 -15 -37 0
-40 2 -30 19 5 11 15 21 22 24 19 6 48 -11 48 -28z"/>
<path d="M5005 676 c-39 -17 -55 -37 -62 -79 -7 -47 22 -74 93 -83 59 -7 74
-17 48 -32 -17 -9 -50 -6 -69 8 -9 6 -35 6 -82 1 -20 -2 -15 -27 10 -56 40
-47 179 -43 228 6 24 24 25 80 1 102 -14 13 -98 37 -128 37 -2 0 -4 7 -4 15 0
23 51 31 66 11 9 -13 24 -16 56 -14 42 3 43 4 43 38 0 27 -6 37 -25 47 -32 16
-137 16 -175 -1z"/>
</g>
</svg>
